# xmcd
#
# Track frame offsets: 
#        150
#        12802
#        28232
#        40369
#        52632
#        64726
#        81446
#        94863
#        108836
#        122574
#        136216
#        148534
#
# Disc length: 2188 seconds
#
# Revision: 4
# Processed by: cddbd v1.4PL0 Copyright (c) Steve Scherf et al.
# Submitted via: ExactAudioCopy v0.90b4
#
DISCID=99088a0c
DTITLE=Jim Belushi And The Sacred Hearts - 36-22-36
DYEAR=1998
DGENRE=Blues
TTITLE0=If You Don't Leave Me Alone
TTITLE1=Smokin' Blues
TTITLE2=29 Ways
TTITLE3=Watch Yourself
TTITLE4=36-22-36
TTITLE5=The Chicken And The Hawk
TTITLE6=Hot Weather Blues
TTITLE7=You Can't Use My Car
TTITLE8=Leap Of Faith
TTITLE9=I Just Want To Make Love To You
TTITLE10=Born In Chicago
TTITLE11=If The House Is Rockin'
EXTD=
EXTT0=
EXTT1=
EXTT2=
EXTT3=
EXTT4=
EXTT5=
EXTT6=
EXTT7=
EXTT8=
EXTT9=
EXTT10=
EXTT11=
PLAYORDER=
